<svg id="Layer_1" data-name="Layer 1" xmlns="http://www.w3.org/2000/svg" viewBox="0 0 2400 2400">
  <defs>
    <style>
      .cls-1 {
        fill: #9dc3fb;
      }

      .cls-2 {
        fill: #fff;
        stroke: #000;
        stroke-miterlimit: 10;
        stroke-width: 3px;
      }
    </style>
  </defs>
  <rect id="bg" class="cls-1" width="2400" height="2400"/>
  <polygon id="San_Pedro" data-name="San Pedro" class="cls-2" points="209 846 40 958 21 1085 130 1005 209 996.5 289 942 209 846"/>
  <polygon id="Binan" class="cls-2" points="261 1034 229 1053 183.8 1034 37 1104 21 1085 130 1005 209 996.5 289 942 366 1015 312 1209 198 1356 126.2 1356 261 1034"/>
  <polygon id="Santa_Rosa" data-name="Santa Rosa" class="cls-2" points="475.4 1149 441 1057 366 1015 312 1209 198 1356 171 1447 314 1401 475.4 1149"/>
  <polygon id="Cabuyao" class="cls-2" points="635 1364 602 1270 475.4 1149 314 1401 171 1447 171 1507.7 345 1417 635 1364"/>
  <polygon id="Province_Border" data-name="Province Border" class="cls-2" points="171 1507.7 171 1692.2 647 1735 747 1830 877 2273 949.7 2273 950 2375 1077 2362 1582 2011 1768 1997 2159 1527 2316 1171 2292 790 2057 742 1730 121 1338.5 121 1349 904 1422 979 1519 880 1511 812 1698 809 1708 1069 1611 988 1560 1036 1616.6 1085 1562.6 1149 1254.8 1356 1087.4 1507.7 750 1563 635 1364 602 1270 475.4 1149 441 1057 366 1015 289 942 209 846 40 958 21 1085 37 1104 183.8 1034 229 1053 261 1034 126.2 1356 198 1356 171 1447 171 1507.7"/>
  <polygon id="Calamba" class="cls-2" points="750 1563 647 1735 171 1692.2 171 1507.7 345 1417 635 1364 750 1563"/>
  <polygon id="Los_Banos" data-name="Los Banos" class="cls-2" points="950.88 1530.08 978 1651 930.8 1735 862.4 1735 747 1830 647 1735 750 1563 950.88 1530.08"/>
  <polygon id="Bay" class="cls-2" points="1105 1591 1078 1698 945 1816 885.8 1816 780.38 1943.76 747 1830 862.4 1735 930.8 1735 978 1651 950.88 1530.08 1087 1508 1105 1591"/>
  <polygon id="Calauan" class="cls-2" points="1181 1564 1253 1564 1339 1694 1267.4 1694 1158 1870 1105 1830 1033 1910 907 1971 780.38 1943.76 885.8 1816 945 1816 1078 1698 1105 1591 1087 1508 1181 1564"/>
  <polygon id="Alaminos" class="cls-2" points="949.7 2273 1059.69 2061.2 1033 1910 907 1971 780.38 1943.76 877 2273 949.7 2273"/>
  <polygon id="San_Pablo_City" data-name="San Pablo City" class="cls-2" points="1267.4 1694 1480 1989 1582 2011 1077 2362 950 2375 949.7 2273 1059.69 2061.2 1033 1910 1105 1830 1158 1870 1267.4 1694"/>
  <polygon id="Rizal" class="cls-2" points="1428 1764 1339 1793.35 1480 1989 1582 2011 1582 1943.76 1428 1764"/>
  <polygon id="Nagcarlan" class="cls-2" points="1483.4 1447 1253 1564 1339 1694 1267.4 1694 1339 1793.35 1428 1764 1582 1943.76 1582 2011 1768 1997 1532 1680.04 1483.4 1447"/>
  <polygon id="Liliw" class="cls-2" points="1624 1631 1817.74 1937.21 1768 1997 1532 1680.04 1500.73 1530.08 1624 1631"/>
  <polygon id="Magdalena" class="cls-2" points="1681 1388 1681 1500 1624 1631 1500.73 1530.08 1483.4 1447 1541 1404 1681 1388"/>
  <polygon id="Majayjay" class="cls-2" points="1961.84 1764 1681 1499.6 1624 1631 1817.74 1937.21 1961.84 1764"/>
  <polygon id="Luisiana" class="cls-2" points="2159 1527 1905 1438 1681 1461.8 1681 1499.6 1961.84 1764 2159 1527"/>
  <polygon id="Cavinti" class="cls-2" points="2316 1171 2108 1264 1757 1264 1757 1453.72 1905 1438 2159 1527 2316 1171"/>
  <polygon id="Victoria" class="cls-2" points="1254.8 1356 1379.82 1499.6 1253 1564 1181 1564 1087 1508 1254.8 1356"/>
  <polygon id="Pila" class="cls-2" points="1483.4 1447 1360.21 1285.11 1254.8 1356 1379.82 1499.6 1483.4 1447"/>
  <polygon id="Santa_Cruz" data-name="Santa Cruz" class="cls-2" points="1541 1404 1600 1220 1566.37 1144.53 1360.21 1285.11 1483.4 1447 1541 1404"/>
  <polygon id="Pagsanjan" class="cls-2" points="1872.2 1264 1872.2 1200 1692.2 1200 1600 1220 1541 1404 1681 1388 1681 1461.8 1757 1453.72 1757 1264 1872.2 1264"/>
  <polygon id="Lumban" class="cls-2" points="1708 1069 2095.4 1069 2302.85 962.22 2316 1171 2108 1264 1872.2 1264 1872.2 1200 1692.2 1200 1600 1220 1566.37 1144.53 1616.6 1085 1560 1036 1611 988 1708 1069"/>
  <polygon id="Kalayaan" class="cls-2" points="1703.34 947.82 2300.59 926.36 2302.85 962.22 2095.4 1069 1708 1069 1703.34 947.82"/>
  <polygon id="Paete" class="cls-2" points="1701.26 893.83 2057 742 2292 790 2300.59 926.36 1703.34 947.82 1701.26 893.83"/>
  <polygon id="Pakil_1" data-name="Pakil 1" class="cls-2" points="1698 809 2022.34 676.18 2057 742 1701.26 893.83 1698 809"/>
  <polygon id="Pakil_2" data-name="Pakil 2" class="cls-2" points="1519.5 880.5 1418.6 785.01 1347.4 785.01 1349 904 1422 979 1519.5 880.5"/>
  <polygon id="Pangil_1" data-name="Pangil 1" class="cls-2" points="1979.77 595.33 1698 723.8 1649 779 1649 809.79 1698 809 2022.34 676.18 1979.77 595.33"/>
  <polygon id="Pangil_2" data-name="Pangil 2" class="cls-2" points="1418.6 785.01 1506.8 785.01 1511 812 1519.5 880.5 1418.6 785.01"/>
  <polygon id="Mabitac" class="cls-2" points="1343.76 513.21 1608 580 1608 809.79 1511 812 1506.8 785.01 1347.4 785.01 1343.76 513.21"/>
  <polygon id="Siniloan" class="cls-2" points="1932.11 504.83 1654 671 1627 778 1627 809.79 1649 809.79 1649 779 1698 723.8 1979.77 595.33 1932.11 504.83"/>
  <polygon id="Famy" class="cls-2" points="1871 388.78 1608 580 1608 809.79 1627 809.79 1627 778 1654 671 1932.11 504.83 1871 388.78"/>
  <polygon id="Santa_Maria" data-name="Santa Maria" class="cls-2" points="1343.76 513.21 1608 580 1871 388.78 1730 121 1338.5 121 1343.76 513.21"/>
</svg>
